<svg width="30" height="34" viewBox="0 0 30 34" fill="none" xmlns="http://www.w3.org/2000/svg">
<path d="M29.7897 0.591907C29.5711 0.463565 29.296 0.507791 29.0431 0.505767C25.9685 0.482065 24.5442 2.50865 24.5442 2.50865C24.4447 2.69827 17.6616 13.5992 17.6616 13.5992C17.5484 13.781 17.2853 13.9779 17.0775 14.0363L2.88007 18.0397C2.67229 18.0984 2.47972 18.3195 2.45222 18.5314L2.26902 19.9432C2.24151 20.1551 2.39193 20.3649 2.60352 20.4094L11.2484 22.234C11.4597 22.2785 11.5399 22.4638 11.4261 22.6453L7.23385 29.3445C7.1203 29.5263 6.85428 29.7113 6.64269 29.7558C6.64269 29.7558 1.77619 30.7814 0.628996 31.0086C0.399557 31.0381 0.278985 31.1875 0.225137 31.3659C0.103979 31.7674 0.00447786 32.412 0.00447786 32.412C-0.0280065 32.623 0.119783 32.8242 0.333126 32.8591L4.20256 33.4907C4.41591 33.5254 4.74807 33.4589 4.92951 33.3427L12.3231 28.6114C12.5045 28.4952 12.75 28.2542 12.8686 28.0755C12.8686 28.0755 27.8772 5.56023 27.9185 5.35067C27.9185 5.35067 29.8699 2.41066 29.9907 1.09689C30.0141 0.847145 30.0083 0.719959 29.7897 0.591907Z" fill="#E13833"/>
</svg>
