<svg width="137" height="36" viewBox="0 0 137 36" fill="none" xmlns="http://www.w3.org/2000/svg">
<g clip-path="url(#clip0_2032_10925)">
<path d="M29.7897 1.59191C29.5711 1.46356 29.296 1.50779 29.0431 1.50577C25.9685 1.48206 24.5442 3.50865 24.5442 3.50865C24.4447 3.69827 17.6616 14.5992 17.6616 14.5992C17.5484 14.781 17.2853 14.9779 17.0775 15.0363L2.88007 19.0397C2.67229 19.0984 2.47972 19.3195 2.45222 19.5314L2.26902 20.9432C2.24151 21.1551 2.39193 21.3649 2.60352 21.4094L11.2484 23.234C11.4597 23.2785 11.5399 23.4638 11.4261 23.6453L7.23385 30.3445C7.1203 30.5263 6.85428 30.7113 6.64269 30.7558C6.64269 30.7558 1.77619 31.7814 0.628996 32.0086C0.399557 32.0381 0.278985 32.1875 0.225137 32.3659C0.103979 32.7674 0.00447786 33.412 0.00447786 33.412C-0.0280065 33.623 0.119783 33.8242 0.333126 33.8591L4.20256 34.4907C4.41591 34.5254 4.74807 34.4589 4.92951 34.3427L12.3231 29.6114C12.5045 29.4952 12.75 29.2542 12.8686 29.0755C12.8686 29.0755 27.8772 6.56023 27.9185 6.35067C27.9185 6.35067 29.8699 3.41066 29.9907 2.09689C30.0141 1.84714 30.0083 1.71996 29.7897 1.59191Z" fill="white"/>
</g>
<path d="M36.81 25.57C36.81 26.15 36.86 26.59 36.96 26.89C37.06 27.19 37.26 27.39 37.56 27.49C37.86 27.59 38.32 27.64 38.94 27.64C39 27.64 39.03 27.7 39.03 27.82C39.03 27.94 39 28 38.94 28C38.42 28 37.84 27.99 37.2 27.97C36.56 27.95 35.86 27.94 35.1 27.94C34.38 27.94 33.69 27.95 33.03 27.97C32.37 27.99 31.78 28 31.26 28C31.22 28 31.2 27.94 31.2 27.82C31.2 27.7 31.22 27.64 31.26 27.64C31.88 27.64 32.34 27.59 32.64 27.49C32.96 27.39 33.17 27.19 33.27 26.89C33.39 26.59 33.45 26.15 33.45 25.57V11.68C33.45 11.1 33.39 10.67 33.27 10.39C33.17 10.09 32.96 9.89 32.64 9.79C32.34 9.67 31.88 9.61 31.26 9.61C31.22 9.61 31.2 9.55 31.2 9.43C31.2 9.31 31.22 9.25 31.26 9.25C31.78 9.25 32.37 9.27 33.03 9.31C33.69 9.33 34.38 9.34 35.1 9.34C35.86 9.34 36.56 9.33 37.2 9.31C37.86 9.27 38.44 9.25 38.94 9.25C39 9.25 39.03 9.31 39.03 9.43C39.03 9.55 39 9.61 38.94 9.61C38.34 9.61 37.88 9.67 37.56 9.79C37.26 9.91 37.06 10.12 36.96 10.42C36.86 10.72 36.81 11.16 36.81 11.74V25.57ZM56.9939 28C56.9339 28 56.9039 27.94 56.9039 27.82C56.9039 27.7 56.9339 27.64 56.9939 27.64C57.6139 27.64 58.0339 27.5 58.2539 27.22C58.4939 26.92 58.6139 26.37 58.6139 25.57V21.25C58.6139 19.13 57.8639 18.07 56.3639 18.07C55.7439 18.07 55.1439 18.22 54.5639 18.52C53.9839 18.82 53.5139 19.23 53.1539 19.75L53.0039 19.39C53.6839 18.39 54.4439 17.59 55.2839 16.99C56.1439 16.37 57.0739 16.06 58.0739 16.06C59.1339 16.06 59.9539 16.37 60.5339 16.99C61.1139 17.59 61.4039 18.53 61.4039 19.81V25.57C61.4039 26.37 61.5139 26.92 61.7339 27.22C61.9739 27.5 62.4039 27.64 63.0239 27.64C63.1039 27.64 63.1439 27.7 63.1439 27.82C63.1439 27.94 63.1039 28 63.0239 28C62.6239 28 62.1639 27.99 61.6439 27.97C61.1239 27.95 60.5739 27.94 59.9939 27.94C59.4339 27.94 58.8939 27.95 58.3739 27.97C57.8539 27.99 57.3939 28 56.9939 28ZM49.1339 28C49.0739 28 49.0439 27.94 49.0439 27.82C49.0439 27.7 49.0739 27.64 49.1339 27.64C49.7539 27.64 50.1739 27.5 50.3939 27.22C50.6339 26.92 50.7539 26.37 50.7539 25.57V21.25C50.7539 19.13 50.0039 18.07 48.5039 18.07C47.8839 18.07 47.2839 18.22 46.7039 18.52C46.1239 18.82 45.6539 19.23 45.2939 19.75L45.1439 19.39C45.8239 18.39 46.5839 17.59 47.4239 16.99C48.2839 16.37 49.2139 16.06 50.2139 16.06C51.2739 16.06 52.0939 16.35 52.6739 16.93C53.2539 17.51 53.5439 18.36 53.5439 19.48V25.57C53.5439 26.37 53.6539 26.92 53.8739 27.22C54.1139 27.5 54.5439 27.64 55.1639 27.64C55.2439 27.64 55.2839 27.7 55.2839 27.82C55.2839 27.94 55.2439 28 55.1639 28C54.7639 28 54.3039 27.99 53.7839 27.97C53.2639 27.95 52.7139 27.94 52.1339 27.94C51.5739 27.94 51.0339 27.95 50.5139 27.97C49.9939 27.99 49.5339 28 49.1339 28ZM41.4239 28C41.3639 28 41.3339 27.94 41.3339 27.82C41.3339 27.7 41.3639 27.64 41.4239 27.64C42.0439 27.64 42.4639 27.5 42.6839 27.22C42.9039 26.92 43.0139 26.37 43.0139 25.57V19.93C43.0139 19.31 42.9439 18.86 42.8039 18.58C42.6639 18.28 42.4239 18.13 42.0839 18.13C41.9039 18.13 41.6939 18.17 41.4539 18.25C41.2139 18.31 40.9439 18.41 40.6439 18.55C40.5639 18.59 40.5039 18.55 40.4639 18.43C40.4239 18.31 40.4239 18.24 40.4639 18.22L44.6339 16.18C44.7539 16.14 44.8239 16.12 44.8439 16.12C45.0639 16.12 45.2839 16.36 45.5039 16.84C45.7239 17.32 45.8339 18.01 45.8339 18.91V25.57C45.8339 26.37 45.9439 26.92 46.1639 27.22C46.4039 27.5 46.8339 27.64 47.4539 27.64C47.5139 27.64 47.5439 27.7 47.5439 27.82C47.5439 27.94 47.5139 28 47.4539 28C47.0539 28 46.5939 27.99 46.0739 27.97C45.5539 27.95 45.0039 27.94 44.4239 27.94C43.8639 27.94 43.3239 27.95 42.8039 27.97C42.2839 27.99 41.8239 28 41.4239 28ZM80.3142 28C80.2542 28 80.2242 27.94 80.2242 27.82C80.2242 27.7 80.2542 27.64 80.3142 27.64C80.9342 27.64 81.3542 27.5 81.5742 27.22C81.8142 26.92 81.9342 26.37 81.9342 25.57V21.25C81.9342 19.13 81.1842 18.07 79.6842 18.07C79.0642 18.07 78.4642 18.22 77.8842 18.52C77.3042 18.82 76.8342 19.23 76.4742 19.75L76.3242 19.39C77.0042 18.39 77.7642 17.59 78.6042 16.99C79.4642 16.37 80.3942 16.06 81.3942 16.06C82.4542 16.06 83.2742 16.37 83.8542 16.99C84.4342 17.59 84.7242 18.53 84.7242 19.81V25.57C84.7242 26.37 84.8342 26.92 85.0542 27.22C85.2942 27.5 85.7242 27.64 86.3442 27.64C86.4242 27.64 86.4642 27.7 86.4642 27.82C86.4642 27.94 86.4242 28 86.3442 28C85.9442 28 85.4842 27.99 84.9642 27.97C84.4442 27.95 83.8942 27.94 83.3142 27.94C82.7542 27.94 82.2142 27.95 81.6942 27.97C81.1742 27.99 80.7142 28 80.3142 28ZM72.4542 28C72.3942 28 72.3642 27.94 72.3642 27.82C72.3642 27.7 72.3942 27.64 72.4542 27.64C73.0742 27.64 73.4942 27.5 73.7142 27.22C73.9542 26.92 74.0742 26.37 74.0742 25.57V21.25C74.0742 19.13 73.3242 18.07 71.8242 18.07C71.2042 18.07 70.6042 18.22 70.0242 18.52C69.4442 18.82 68.9742 19.23 68.6142 19.75L68.4642 19.39C69.1442 18.39 69.9042 17.59 70.7442 16.99C71.6042 16.37 72.5342 16.06 73.5342 16.06C74.5942 16.06 75.4142 16.35 75.9942 16.93C76.5742 17.51 76.8642 18.36 76.8642 19.48V25.57C76.8642 26.37 76.9742 26.92 77.1942 27.22C77.4342 27.5 77.8642 27.64 78.4842 27.64C78.5642 27.64 78.6042 27.7 78.6042 27.82C78.6042 27.94 78.5642 28 78.4842 28C78.0842 28 77.6242 27.99 77.1042 27.97C76.5842 27.95 76.0342 27.94 75.4542 27.94C74.8942 27.94 74.3542 27.95 73.8342 27.97C73.3142 27.99 72.8542 28 72.4542 28ZM64.7442 28C64.6842 28 64.6542 27.94 64.6542 27.82C64.6542 27.7 64.6842 27.64 64.7442 27.64C65.3642 27.64 65.7842 27.5 66.0042 27.22C66.2242 26.92 66.3342 26.37 66.3342 25.57V19.93C66.3342 19.31 66.2642 18.86 66.1242 18.58C65.9842 18.28 65.7442 18.13 65.4042 18.13C65.2242 18.13 65.0142 18.17 64.7742 18.25C64.5342 18.31 64.2642 18.41 63.9642 18.55C63.8842 18.59 63.8242 18.55 63.7842 18.43C63.7442 18.31 63.7442 18.24 63.7842 18.22L67.9542 16.18C68.0742 16.14 68.1442 16.12 68.1642 16.12C68.3842 16.12 68.6042 16.36 68.8242 16.84C69.0442 17.32 69.1542 18.01 69.1542 18.91V25.57C69.1542 26.37 69.2642 26.92 69.4842 27.22C69.7242 27.5 70.1542 27.64 70.7742 27.64C70.8342 27.64 70.8642 27.7 70.8642 27.82C70.8642 27.94 70.8342 28 70.7742 28C70.3742 28 69.9142 27.99 69.3942 27.97C68.8742 27.95 68.3242 27.94 67.7442 27.94C67.1842 27.94 66.6442 27.95 66.1242 27.97C65.6042 27.99 65.1442 28 64.7442 28ZM88.0645 28C88.0045 28 87.9745 27.94 87.9745 27.82C87.9745 27.7 88.0045 27.64 88.0645 27.64C88.6845 27.64 89.1045 27.5 89.3245 27.22C89.5445 26.92 89.6545 26.37 89.6545 25.57V20.2C89.6545 19.54 89.5845 19.06 89.4445 18.76C89.3245 18.44 89.0945 18.28 88.7545 18.28C88.6145 18.28 88.4445 18.31 88.2445 18.37C88.0645 18.43 87.8645 18.51 87.6445 18.61C87.5645 18.63 87.4945 18.58 87.4345 18.46C87.3945 18.34 87.4045 18.27 87.4645 18.25L91.9945 16.15C92.0345 16.13 92.0645 16.12 92.0845 16.12C92.1845 16.12 92.2845 16.17 92.3845 16.27C92.4845 16.37 92.5345 16.46 92.5345 16.54C92.5345 16.78 92.5245 17.18 92.5045 17.74C92.4845 18.3 92.4745 19.1 92.4745 20.14V25.57C92.4745 26.37 92.5845 26.92 92.8045 27.22C93.0445 27.5 93.4745 27.64 94.0945 27.64C94.1545 27.64 94.1845 27.7 94.1845 27.82C94.1845 27.94 94.1545 28 94.0945 28C93.6945 28 93.2345 27.99 92.7145 27.97C92.1945 27.95 91.6445 27.94 91.0645 27.94C90.5045 27.94 89.9645 27.95 89.4445 27.97C88.9245 27.99 88.4645 28 88.0645 28ZM90.9445 13.15C90.3845 13.15 89.9345 12.99 89.5945 12.67C89.2745 12.35 89.1145 11.9 89.1145 11.32C89.1145 10.8 89.2745 10.39 89.5945 10.09C89.9345 9.77 90.3845 9.61 90.9445 9.61C91.5045 9.61 91.9345 9.77 92.2345 10.09C92.5345 10.39 92.6845 10.8 92.6845 11.32C92.6845 12.54 92.1045 13.15 90.9445 13.15Z" fill="white"/>
<path d="M101.255 25.45C101.255 26.05 101.315 26.51 101.435 26.83C101.575 27.13 101.855 27.34 102.275 27.46C102.695 27.58 103.315 27.64 104.135 27.64C104.195 27.64 104.225 27.7 104.225 27.82C104.225 27.94 104.195 28 104.135 28C103.495 28 102.795 27.99 102.035 27.97C101.295 27.95 100.485 27.94 99.6054 27.94C98.8854 27.94 98.1954 27.95 97.5354 27.97C96.8954 27.99 96.3154 28 95.7954 28C95.7354 28 95.7054 27.94 95.7054 27.82C95.7054 27.7 95.7354 27.64 95.7954 27.64C96.4154 27.64 96.8754 27.59 97.1754 27.49C97.4754 27.39 97.6754 27.19 97.7754 26.89C97.8754 26.59 97.9254 26.15 97.9254 25.57V11.68C97.9254 11.1 97.8754 10.67 97.7754 10.39C97.6754 10.09 97.4754 9.89 97.1754 9.79C96.8754 9.67 96.4154 9.61 95.7954 9.61C95.7354 9.61 95.7054 9.55 95.7054 9.43C95.7054 9.31 95.7354 9.25 95.7954 9.25C96.3154 9.25 96.8954 9.27 97.5354 9.31C98.1754 9.33 98.8554 9.34 99.5754 9.34C100.055 9.34 100.685 9.31 101.465 9.25C102.245 9.19 102.975 9.16 103.655 9.16C104.915 9.16 106.025 9.33 106.985 9.67C107.965 9.99 108.745 10.51 109.325 11.23C109.905 11.95 110.215 12.9 110.255 14.08C110.295 15.1 110.125 15.99 109.745 16.75C109.385 17.51 108.875 18.14 108.215 18.64C107.575 19.14 106.855 19.52 106.055 19.78C105.275 20.02 104.495 20.14 103.715 20.14C103.515 20.14 103.285 20.13 103.025 20.11C102.785 20.09 102.545 20.05 102.305 19.99C102.245 19.97 102.225 19.9 102.245 19.78C102.265 19.64 102.315 19.58 102.395 19.6C102.555 19.64 102.735 19.67 102.935 19.69C103.135 19.71 103.295 19.72 103.415 19.72C103.995 19.72 104.525 19.54 105.005 19.18C105.485 18.82 105.875 18.27 106.175 17.53C106.475 16.79 106.625 15.87 106.625 14.77C106.625 13.71 106.475 12.82 106.175 12.1C105.875 11.36 105.435 10.8 104.855 10.42C104.275 10.02 103.555 9.82 102.695 9.82C102.335 9.82 102.045 9.87 101.825 9.97C101.625 10.07 101.475 10.26 101.375 10.54C101.295 10.82 101.255 11.22 101.255 11.74V25.45ZM115.836 19.87L115.596 19.48C116.376 18.58 117.036 17.89 117.576 17.41C118.116 16.93 118.576 16.6 118.956 16.42C119.336 16.22 119.676 16.12 119.976 16.12C120.396 16.12 120.826 16.28 121.266 16.6C121.726 16.9 121.956 17.3 121.956 17.8C121.956 18.22 121.826 18.57 121.566 18.85C121.326 19.11 120.986 19.24 120.546 19.24C120.126 19.24 119.806 19.13 119.586 18.91C119.386 18.69 119.196 18.48 119.016 18.28C118.856 18.06 118.616 17.95 118.296 17.95C118.156 17.95 117.996 18 117.816 18.1C117.656 18.18 117.416 18.36 117.096 18.64C116.796 18.9 116.376 19.31 115.836 19.87ZM112.176 28C112.116 28 112.086 27.94 112.086 27.82C112.086 27.7 112.116 27.64 112.176 27.64C112.796 27.64 113.216 27.5 113.436 27.22C113.656 26.92 113.766 26.37 113.766 25.57V19.93C113.766 19.31 113.696 18.86 113.556 18.58C113.416 18.28 113.176 18.13 112.836 18.13C112.656 18.13 112.446 18.17 112.206 18.25C111.966 18.31 111.696 18.41 111.396 18.55C111.316 18.59 111.256 18.55 111.216 18.43C111.176 18.31 111.176 18.24 111.216 18.22L115.386 16.18C115.506 16.14 115.576 16.12 115.596 16.12C115.816 16.12 116.036 16.36 116.256 16.84C116.476 17.32 116.586 18.01 116.586 18.91V25.57C116.586 26.09 116.666 26.51 116.826 26.83C116.986 27.13 117.256 27.34 117.636 27.46C118.036 27.58 118.576 27.64 119.256 27.64C119.336 27.64 119.376 27.7 119.376 27.82C119.376 27.94 119.336 28 119.256 28C118.716 28 118.096 27.99 117.396 27.97C116.716 27.95 115.976 27.94 115.176 27.94C114.616 27.94 114.076 27.95 113.556 27.97C113.036 27.99 112.576 28 112.176 28ZM129.131 28.39C127.871 28.39 126.781 28.1 125.861 27.52C124.941 26.94 124.231 26.17 123.731 25.21C123.231 24.23 122.981 23.18 122.981 22.06C122.981 21.02 123.181 20.12 123.581 19.36C123.981 18.6 124.511 17.98 125.171 17.5C125.831 17 126.551 16.63 127.331 16.39C128.111 16.15 128.881 16.03 129.641 16.03C130.921 16.03 132.011 16.33 132.911 16.93C133.831 17.53 134.531 18.3 135.011 19.24C135.491 20.18 135.731 21.18 135.731 22.24C135.731 23.46 135.421 24.54 134.801 25.48C134.201 26.4 133.401 27.12 132.401 27.64C131.401 28.14 130.311 28.39 129.131 28.39ZM130.031 27.76C130.831 27.76 131.431 27.37 131.831 26.59C132.231 25.81 132.431 24.71 132.431 23.29C132.431 21.83 132.241 20.61 131.861 19.63C131.501 18.65 131.031 17.91 130.451 17.41C129.871 16.91 129.261 16.66 128.621 16.66C127.841 16.66 127.241 17.01 126.821 17.71C126.421 18.41 126.221 19.49 126.221 20.95C126.221 22.31 126.391 23.51 126.731 24.55C127.071 25.57 127.531 26.36 128.111 26.92C128.691 27.48 129.331 27.76 130.031 27.76Z" fill="#E13833"/>
<defs>
<clipPath id="clip0_2032_10925">
<rect width="30" height="33" fill="white" transform="translate(0 1.5)"/>
</clipPath>
</defs>
</svg>
